<?xml version="1.0" encoding="UTF-8"?>
<svg id="Layer_5" xmlns="http://www.w3.org/2000/svg" version="1.1" viewBox="0 0 1180.83 297.34">
  <!-- Generator: Adobe Illustrator 30.1.0, SVG Export Plug-In . SVG Version: 2.1.1 Build 136)  -->
  <defs>
    <style>
      .st0 {
        fill: #1a1a2e;
      }

      .st1 {
        fill: #ff2c00;
      }
    </style>
  </defs>
  <g>
    <path class="st1" d="M948.24,266.9l-47.14-39.71c42.56-50.54,66.01-78.37,73.77-99.95,6.67-18.55,3.55-38.59-4.81-86.13l60.71-10.67c9.09,51.73,14.58,82.96,2.1,117.65-11.5,31.98-35.94,60.99-84.62,118.8Z"/>
    <rect class="st1" x="1033.87" y="118.58" width="61.64" height="145.44" transform="translate(125.63 728.26) rotate(-39.95)"/>
    <rect class="st1" x="891.63" y="105.14" width="248.39" height="61.64" transform="translate(-7.99 89.07) rotate(-5)"/>
  </g>
  <g>
    <path class="st0" d="M204.11,258.08l55-77.51-62.23-87.19h65.23l35.02,49.22,35.55-50.41h69.91l-56.89,79.78,61.2,86.11h-69.91l-33.66-48.14-34,48.14h-65.23Z"/>
    <path class="st0" d="M139.16,261.47c-18.22,1.85-34.75-.27-49.14-6.3-14.47-6.06-26.27-15.41-35.06-27.8-8.75-12.34-14.05-27.05-15.74-43.73-1.78-17.53.23-33.47,5.95-47.37,5.76-13.98,14.68-25.44,26.5-34.07,11.8-8.61,26.14-13.82,42.6-15.49,17.09-1.73,32.51.21,45.83,5.78,13.4,5.61,24.38,14.29,32.63,25.82,8.23,11.51,13.24,25.68,14.91,42.11.31,3.01.49,6.57.54,10.57.05,4.07-.1,7.92-.45,11.45l-.33,3.37-116.29,11.78c1.64,4.75,4.1,8.75,7.34,11.94,4.26,4.22,9.55,7.18,15.72,8.79,6.39,1.68,13.37,2.15,20.75,1.4,8.97-.91,17.57-3.31,25.58-7.13,8.04-3.84,15.31-8.85,21.62-14.9l3.53-3.39,21.12,31.15-2.33,2.41c-9.78,10.16-20.38,18.09-31.51,23.58-11.15,5.5-22.52,8.87-33.79,10.02ZM155.4,154.03c-1.49-7.57-4.9-13.5-10.37-18.04-6.39-5.3-14.58-7.37-25.04-6.31-9.44.96-17.12,4.7-23.48,11.45-5.27,5.6-8.06,12.09-8.47,19.72l67.35-6.82Z"/>
    <path class="st0" d="M499.1,156.45l41.49-4.23v-61.1h-41.49V30.44h-58.42v60.68h-31.56v74.37l31.56-3.15v41.38c0,14.9,1.98,26.22,5.93,34.07,3.95,7.8,10.57,13.03,19.81,15.75,9.24,2.67,21.63,4.01,37.27,4.01h36.9v-47.63h-16.87c-9.51,0-15.97-1.39-19.44-4.06-3.47-2.67-5.18-8.54-5.18-17.52v-31.89Z"/>
    <path class="st0" d="M567.08,258.08V91.08h48.51l10.91,53.36s5.45-37.3,25.47-50.53c10.49-6.93,23.85-9.3,39.21-8.49v87.15c-3.23-.54-6.06-.87-8.49-1.01-2.43-.13-5.13-.2-8.09-.2-14.82,0-26.21,3.51-34.16,10.51-7.95,7.01-11.92,18.46-11.92,34.36v41.86h-61.44Z"/>
    <path class="st0" d="M764.01,262.12c-8.05,0-15.79-1.12-23.02-3.33-7.53-2.3-14.18-5.85-19.74-10.52-5.6-4.71-10.14-10.59-13.49-17.47-3.39-6.97-5.11-15-5.11-23.85,0-10.55,2.92-19.97,8.66-28.01,5.39-7.53,12.51-13.87,21.17-18.83,8.32-4.77,17.92-8.38,28.55-10.74,10.38-2.3,21.1-3.46,31.85-3.46,5.74,0,10.75.11,14.91.33.74.04,1.49.08,2.25.13,0,0,1.35-8.75-4.32-13.07-4.05-3.08-9.81-4.21-18.7-4.3-8.04-.07-16.37,1.15-24.77,3.42-8.4,2.27-16.48,5.62-24.01,9.97l-8.17,4.72-21.64-41.73,7.48-4.31c10.3-5.94,21.51-10.68,33.32-14.09,11.92-3.44,24.63-5.19,37.79-5.19,8.68,0,17.34.98,25.74,2.93,8.8,2.04,16.85,5.46,23.9,10.16,7.35,4.9,13.3,11.36,17.7,19.19,4.44,7.94,6.7,23.01,6.7,34.25v110.15h-50.55v-9.38c-3.15,2.08-6.56,3.93-10.25,5.56-11.21,4.96-23.4,7.47-36.24,7.47ZM792.87,192.18c-14.55,0-25.4,1.79-32.27,5.32-4.91,2.52-7.4,5.08-7.4,7.61,0,2.83,0,9.46,19.21,9.46,5.58,0,10.84-.7,15.66-2.09,4.74-1.37,8.93-3.26,12.48-5.63,3.26-2.17,5.71-4.68,7.52-7.67,1.22-2.03,1.98-4.18,2.28-6.52-1.95-.18-3.82-.28-5.63-.33-4.46-.1-8.41-.16-11.84-.16Z"/>
  </g>
</svg>