<?xml version="1.0" encoding="UTF-8"?>
<svg id="Layer_5" xmlns="http://www.w3.org/2000/svg" version="1.1" viewBox="0 0 1920 297.34">
  <!-- Generator: Adobe Illustrator 30.2.1, SVG Export Plug-In . SVG Version: 2.1.1 Build 1)  -->
  <defs>
    <style>
      .st0 {
        fill: #ff2c00;
      }

      .st1 {
        fill: ivory;
      }
    </style>
  </defs>
  <g>
    <path class="st0" d="M1153.88,212.73l-25.54-21.51c23.06-27.38,35.77-42.47,39.97-54.16,3.61-10.05,1.92-20.91-2.61-46.67l32.89-5.78c4.93,28.03,7.9,44.95,1.14,63.75-6.23,17.33-19.47,33.05-45.85,64.37Z"/>
    <rect class="st0" x="1200.28" y="132.36" width="33.4" height="78.8" transform="translate(173.71 821.49) rotate(-39.95)"/>
    <rect class="st0" x="1123.21" y="125.09" width="134.59" height="33.4" transform="translate(-7.83 104.32) rotate(-5)"/>
  </g>
  <g>
    <path class="st1" d="M750.68,207.95l29.8-42-33.72-47.24h35.34l18.98,26.67,19.26-27.31h37.88l-30.82,43.23,33.16,46.66h-37.88l-18.24-26.08-18.42,26.08h-35.34Z"/>
    <path class="st1" d="M715.49,209.79c-9.87,1-18.83-.15-26.62-3.41-7.84-3.28-14.23-8.35-19-15.07-4.74-6.69-7.61-14.66-8.53-23.69-.96-9.5.12-18.13,3.23-25.67,3.12-7.57,7.95-13.78,14.36-18.46,6.4-4.66,14.16-7.49,23.08-8.39,9.26-.94,17.61.12,24.83,3.13,7.26,3.04,13.21,7.74,17.68,13.99,4.46,6.24,7.18,13.91,8.08,22.82.17,1.63.26,3.56.29,5.73.03,2.2-.05,4.29-.24,6.2l-.18,1.83-63.01,6.38c.89,2.57,2.22,4.74,3.98,6.47,2.31,2.29,5.17,3.89,8.52,4.76,3.46.91,7.24,1.16,11.24.76,4.86-.49,9.52-1.79,13.86-3.87,4.36-2.08,8.3-4.8,11.72-8.07l1.92-1.84,11.44,16.88-1.26,1.31c-5.3,5.5-11.04,9.8-17.07,12.78-6.04,2.98-12.2,4.81-18.31,5.43ZM724.29,151.57c-.81-4.1-2.66-7.32-5.62-9.78-3.46-2.87-7.9-3.99-13.57-3.42-5.12.52-9.28,2.55-12.72,6.21-2.86,3.04-4.37,6.55-4.59,10.69l36.49-3.7Z"/>
    <path class="st1" d="M910.52,152.88l22.48-2.29v-33.11h-22.48v-32.88h-31.65v32.88h-17.1v40.3l17.1-1.71v22.42c0,8.07,1.07,14.21,3.21,18.46,2.14,4.22,5.73,7.06,10.74,8.54,5.01,1.45,11.72,2.17,20.2,2.17h19.99v-25.81h-9.14c-5.15,0-8.65-.75-10.53-2.2-1.88-1.45-2.81-4.63-2.81-9.49v-17.28Z"/>
    <path class="st1" d="M947.36,207.95v-90.49h26.28l5.91,28.91s2.95-20.21,13.8-27.38c5.68-3.76,12.92-5.04,21.25-4.6v47.22c-1.75-.29-3.29-.47-4.6-.55-1.32-.07-2.78-.11-4.38-.11-8.03,0-14.2,1.9-18.51,5.69-4.31,3.8-6.46,10-6.46,18.62v22.68h-33.29Z"/>
    <path class="st1" d="M1054.06,210.14c-4.36,0-8.56-.61-12.47-1.8-4.08-1.25-7.68-3.17-10.7-5.7-3.04-2.55-5.49-5.74-7.31-9.47-1.84-3.78-2.77-8.13-2.77-12.92,0-5.72,1.58-10.82,4.69-15.17,2.92-4.08,6.78-7.51,11.47-10.2,4.51-2.58,9.71-4.54,15.47-5.82,5.63-1.25,11.43-1.88,17.26-1.88,3.11,0,5.82.06,8.08.18.4.02.81.04,1.22.07,0,0,.73-4.74-2.34-7.08-2.19-1.67-5.31-2.28-10.13-2.33-4.36-.04-8.87.62-13.42,1.85-4.55,1.23-8.93,3.05-13.01,5.4l-4.43,2.56-11.72-22.61,4.05-2.33c5.58-3.22,11.66-5.78,18.05-7.64,6.46-1.87,13.35-2.81,20.48-2.81,4.7,0,9.4.53,13.95,1.59,4.77,1.11,9.13,2.96,12.95,5.51,3.98,2.66,7.21,6.15,9.59,10.4,2.41,4.3,3.63,12.47,3.63,18.56v59.68h-27.39v-5.08c-1.7,1.13-3.56,2.13-5.55,3.01-6.07,2.69-12.68,4.05-19.63,4.05ZM1069.7,172.24c-7.88,0-13.77.97-17.48,2.88-2.66,1.37-4.01,2.75-4.01,4.13,0,1.53,0,5.13,10.41,5.13,3.02,0,5.87-.38,8.48-1.13,2.57-.74,4.84-1.77,6.76-3.05,1.76-1.18,3.1-2.54,4.08-4.16.66-1.1,1.07-2.26,1.23-3.53-1.06-.1-2.07-.15-3.05-.18-2.42-.05-4.56-.08-6.42-.08Z"/>
  </g>
</svg>